<svg width="1078" height="851" viewBox="0 0 1078 851" fill="none" xmlns="http://www.w3.org/2000/svg">
<path d="M461.949 112.88L377.385 131.487C360.567 88.5585 314.542 62.9276 268.137 73.1383C221.733 83.3491 190.717 125.932 193.472 171.955L108.908 190.562C68.3097 199.495 42.6749 239.713 51.6097 280.319L146.71 712.523C155.645 753.13 195.794 778.873 236.392 769.94L589.433 692.258C630.031 683.325 655.666 643.107 646.731 602.501L551.631 170.296C542.696 129.69 502.547 103.947 461.949 112.88ZM265.01 619.642C256.82 621.444 248.797 616.336 246.979 608.073C245.161 599.811 250.298 591.807 258.488 590.004C266.679 588.202 274.702 593.311 276.52 601.573C278.338 609.836 273.2 617.84 265.01 619.642ZM239.073 501.768C230.883 503.57 222.86 498.462 221.042 490.199C219.224 481.937 224.362 473.933 232.552 472.13C240.742 470.328 248.765 475.437 250.583 483.699C252.401 491.962 247.264 499.966 239.073 501.768ZM213.137 383.894C204.947 385.697 196.924 380.588 195.106 372.325C193.288 364.063 198.425 356.059 206.615 354.256C214.806 352.454 222.829 357.563 224.647 365.825C226.465 374.088 221.327 382.092 213.137 383.894ZM285.391 151.552C293.581 149.749 301.604 154.858 303.422 163.12C305.24 171.383 300.103 179.387 291.913 181.189C283.722 182.992 275.699 177.883 273.881 169.621C272.063 161.358 277.201 153.354 285.391 151.552ZM520.588 542.632L522.787 552.624L355.952 589.333L353.753 579.341L520.588 542.632ZM494.651 424.758L496.85 434.75L330.015 471.459L327.817 461.467L494.651 424.758ZM468.715 306.884L470.914 316.876L304.079 353.585L301.88 343.593L468.715 306.884Z" fill="#2877B0" stroke="white" stroke-width="30"/>
<path d="M447 707C314.2 563.8 337.667 276 366 150L424 139V158C424 164.4 439.333 359.333 447 456L523 692L447 707Z" fill="#283EB0" fill-opacity="0.49"/>
<path d="M566.149 750.6C337.24 594.898 377.991 228.421 426.98 64.6453C426.98 64.6453 597.062 167.709 709.827 196.973L566.149 750.6Z" fill="#F3A100"/>
<path d="M566.149 750.6C841.885 725.865 984.492 385.821 1021.33 218.892C1021.33 218.892 817.752 224.982 709.827 196.973L566.149 750.6Z" fill="#F3A100"/>
<path d="M566.149 750.6C337.24 594.898 377.991 228.421 426.98 64.6453C426.98 64.6453 597.062 167.709 709.827 196.973M566.149 750.6L709.827 196.973M566.149 750.6C841.885 725.865 984.492 385.821 1021.33 218.892C1021.33 218.892 817.752 224.982 709.827 196.973" stroke="white" stroke-width="25"/>
<path d="M596 708C730 670.4 815.167 402.333 858 247L987.5 247C858 599.5 725 671.803 596 708Z" fill="#F37500"/>
<path d="M846.636 424.305C825.953 401.314 771.176 364.163 717.53 399.491C744.309 358.661 807.622 306.461 846.636 424.305Z" fill="white"/>
<path d="M484.601 330.349C513.854 320.317 579.784 314.492 609.48 371.449C605.935 322.749 575.997 246.349 484.601 330.349Z" fill="white"/>
<path d="M442.509 413.413C502.672 488.62 666.285 613.989 839.437 513.812C748.825 635.933 542.583 786.822 442.509 413.413Z" fill="white"/>
<path d="M766 564C683.2 594 567.5 545.167 520 517C551.2 548.2 611.667 577.333 638 588L627 624C679 640.8 741.333 591 766 564Z" fill="#C4C4C4" fill-opacity="0.39"/>
</svg>
